# xmcd
#
# Track frame offsets: 
#        150
#        18013
#        34200
#        50969
#        72381
#        111847
#        126645
#        145958
#        166662
#        191166
#        207402
#        223227
#        234408
#        263518
#        292058
#
# Disc length: 4068 seconds
#
# Revision: 1
# Processed by: cddbd v1.5.2PL0 Copyright (c) Steve Scherf et al.
# Submitted via: ExactAudioCopy v1.0b2
#
DISCID=f10fe20f
DTITLE=World - La palylist World Idéale
DYEAR=2010
DGENRE=Folklore
TTITLE0=Youssou N'Dour- Heat, breeze, tenderness
TTITLE1=Lady Smith Black Manzano- Ibhubesi 
TTITLE2=Jehro- Everything 
TTITLE3=Antonio Carlos Jobim- The girl from Ipanema
TTITLE4=Joao Gilberto - Besame mucho
TTITLE5=Cherif Mbaw- La danse
TTITLE6=Gnawa Diffusion - Itchak el baz
TTITLE7=Casa de la Trova- Doble inconcencia
TTITLE8=davy Sicard - Maloya Kabose
TTITLE9=Gilberto Gil - Febril
TTITLE10=Bebel Gil  - So Nice
TTITLE11=The Corrs - Haste To The Wedding
TTITLE12=Mike Oldfield - Women opf Ireland
TTITLE13=Hamid el Gnawi - El  walli
TTITLE14=Miriam Makeba - Pata pata
EXTD=
EXTT0=
EXTT1=
EXTT2=
EXTT3=
EXTT4=
EXTT5=
EXTT6=
EXTT7=
EXTT8=
EXTT9=
EXTT10=
EXTT11=
EXTT12=
EXTT13=
EXTT14=
PLAYORDER=
